<svg version="1.0" xmlns="http://www.w3.org/2000/svg"
 width="400.000000pt" height="400.000000pt" viewBox="0 0 525.000000 350.000000"
 preserveAspectRatio="xMidYMid meet">
<g transform="translate(0.000000,350.000000) scale(0.100000,-0.100000)"
fill="#434343" stroke="none">
<path d="M0 1750 l0 -1750 2625 0 2625 0 0 1750 0 1750 -2625 0 -2625 0 0
-1750z m1534 1021 c38 -42 7 -70 -126 -117 -40 -14 -102 -38 -138 -54 -36 -15
-83 -34 -105 -43 -101 -38 -226 -96 -302 -139 -46 -27 -87 -48 -91 -48 -4 0
-15 -8 -24 -17 -9 -10 -45 -46 -81 -81 -62 -61 -111 -136 -150 -232 -42 -103
-57 -129 -77 -135 -14 -4 -28 -1 -41 11 -23 20 -24 33 -5 71 8 15 27 57 42 93
14 36 33 72 40 81 8 8 14 21 14 27 0 34 200 245 245 258 11 4 27 12 35 19 44
39 286 146 670 298 79 32 73 31 94 8z m798 -138 c8 -10 22 -47 32 -83 10 -36
22 -73 27 -82 5 -10 9 -27 9 -37 0 -11 4 -22 9 -25 4 -3 11 -27 15 -53 4 -27
11 -70 15 -98 4 -27 12 -66 19 -85 6 -19 17 -56 23 -81 l13 -46 50 32 c28 18
80 47 114 64 60 30 65 31 88 16 43 -28 21 -72 -51 -99 -25 -10 -72 -36 -105
-58 -67 -44 -71 -57 -41 -124 10 -23 22 -57 26 -75 4 -19 11 -38 15 -44 4 -5
10 -29 14 -51 3 -23 13 -54 21 -70 19 -37 19 -59 -1 -78 -35 -35 -73 -4 -98
80 -9 33 -31 103 -47 156 l-31 97 -31 -22 c-17 -12 -39 -30 -49 -39 -10 -10
-27 -18 -37 -18 -22 0 -51 25 -51 44 0 14 46 58 102 99 32 23 36 31 29 50 -16
42 -56 204 -72 292 -7 39 -27 117 -45 175 -40 124 -41 144 -12 164 28 20 32
20 50 -1z m-1264 -302 c17 -49 24 -100 32 -234 6 -95 15 -197 20 -227 5 -30
13 -105 16 -165 6 -97 5 -113 -10 -128 -45 -45 -72 -7 -80 113 -4 52 -11 120
-16 150 -5 30 -14 132 -19 225 -7 125 -15 186 -31 229 -25 75 -25 91 2 110 33
23 59 1 86 -73z m3622 51 c34 -27 19 -57 -38 -78 -26 -10 -51 -21 -57 -24 -5
-4 -53 -26 -105 -50 -52 -23 -104 -51 -115 -61 -11 -11 -39 -34 -63 -51 l-44
-31 32 -20 c17 -11 97 -44 176 -73 204 -75 263 -104 312 -158 47 -51 54 -88
26 -136 -40 -67 -232 -118 -479 -127 -144 -5 -151 -5 -169 16 -16 17 -17 26
-8 45 10 22 15 23 169 29 208 9 382 45 408 86 6 11 -29 50 -64 70 -31 17 -163
71 -176 71 -5 1 -28 9 -50 20 -22 11 -45 19 -50 20 -23 0 -145 57 -179 83 -34
27 -36 31 -36 87 0 32 3 66 6 75 5 13 217 125 237 125 3 0 47 20 99 44 138 65
136 64 168 38z m-1382 -129 c4 -26 -23 -53 -51 -53 -41 0 -132 -55 -196 -119
l-63 -63 4 -83 c3 -58 11 -94 26 -123 24 -46 38 -128 28 -166 -7 -30 -41 -43
-63 -24 -22 18 -50 87 -58 141 -5 29 -15 52 -31 66 -28 24 -30 43 -9 61 11 9
15 32 15 81 0 63 3 73 35 118 64 89 201 186 285 201 41 8 74 -8 78 -37z m510
-15 c7 -7 12 -24 12 -38 0 -14 6 -32 13 -38 20 -21 22 -363 2 -432 -9 -30 -20
-79 -24 -108 -9 -70 -48 -95 -83 -54 -18 19 -13 66 16 172 21 74 21 328 1 385
-17 48 -19 79 -5 106 12 21 50 25 68 7z m-1847 -109 c52 -17 105 -74 118 -125
17 -68 14 -132 -9 -170 -35 -56 -187 -143 -277 -159 -42 -7 -73 10 -73 40 0
20 49 55 76 55 12 0 26 5 29 10 3 6 13 10 22 10 24 0 130 72 144 96 16 30 2
99 -26 132 -22 26 -28 27 -133 30 -105 4 -112 2 -153 -23 -105 -66 -119 -95
-119 -254 0 -143 15 -176 105 -236 l60 -40 155 0 c136 0 159 2 188 20 l32 19
21 -21 c36 -36 20 -66 -50 -93 -53 -20 -74 -22 -203 -18 -136 3 -146 5 -208
34 -80 39 -134 90 -166 159 -21 48 -24 68 -24 178 0 158 17 208 99 284 31 29
63 53 71 53 8 1 26 7 40 15 31 18 231 20 281 4z"/>
</g>
</svg>
