<svg version="1.0" xmlns="http://www.w3.org/2000/svg"
 width="1085.000000pt" height="547.000000pt" viewBox="0 0 1000.000000 500.000000"
 preserveAspectRatio="xMidYMid meet">
<g transform="translate(-725.000000, 1000.000000) scale(0.250000,-0.250000)"
fill="#434343" stroke="none">
<path d="M0 2735 l0 -2735 5425 0 5425 0 0 2735 0 2735 -5425 0 -5425 0 0
-2735z m4558 863 c30 -50 58 -143 77 -248 32 -188 47 -266 60 -305 8 -22 19
-78 25 -125 6 -47 13 -95 15 -107 7 -32 -29 -67 -54 -53 -23 12 -38 54 -46
135 -4 33 -20 114 -36 180 -16 66 -36 167 -44 226 -7 58 -26 139 -40 180 -45
124 -45 149 -1 149 17 0 30 -10 44 -32z m1276 -355 c6 -23 4 -62 -8 -130 -9
-54 -21 -125 -27 -158 -5 -33 -16 -100 -24 -150 -8 -49 -20 -135 -26 -190 -15
-137 -16 -143 -39 -155 -26 -14 -41 -5 -79 45 -17 22 -45 58 -61 80 -59 76
-13 131 55 65 l33 -32 5 34 c3 18 10 69 17 113 6 44 15 96 20 115 6 19 10 43
10 53 0 17 -2 17 -22 3 -75 -53 -181 32 -258 207 -25 56 -15 97 24 97 22 0 32
-13 73 -97 34 -67 57 -102 78 -115 16 -10 33 -18 36 -18 8 0 84 157 99 205 17
54 29 67 59 63 19 -2 28 -11 35 -35z m-762 -77 c6 -14 20 -26 32 -28 14 -2 41
-34 81 -95 47 -73 69 -97 102 -113 50 -25 59 -44 33 -70 -26 -26 -61 -25 -94
1 l-27 22 -15 -22 c-8 -12 -30 -28 -47 -37 -18 -9 -44 -29 -59 -45 -29 -31
-64 -37 -101 -18 -50 27 -116 91 -122 119 -8 35 24 141 63 210 52 91 129 129
154 76z m-738 -100 c65 -27 200 -277 181 -336 -10 -33 -42 -42 -168 -51 -136
-9 -160 -3 -155 39 3 23 10 29 48 39 25 6 75 12 113 12 37 1 67 5 67 10 0 20
-42 105 -77 158 l-37 55 -60 -6 c-84 -9 -132 -23 -161 -49 l-24 -22 48 -105
c27 -58 54 -130 59 -160 26 -133 32 -178 32 -251 0 -48 6 -94 16 -118 12 -30
13 -44 5 -60 -17 -30 -47 -44 -70 -32 -21 12 -25 33 -41 231 -12 154 -23 226
-45 287 -26 70 -84 183 -117 225 -36 46 -36 91 0 96 13 2 32 -4 42 -13 17 -15
22 -15 71 10 93 48 214 66 273 41z"/>
<path d="M5018 3083 c-30 -36 -78 -140 -78 -172 0 -22 67 -74 83 -65 6 4 29
21 50 38 44 35 47 59 13 108 -13 20 -29 52 -36 72 -6 20 -13 36 -14 36 -2 0
-10 -8 -18 -17z"/>
</g>
</svg>
